<svg width="90" height="40" viewBox="0 0 90 40" fill="none" xmlns="http://www.w3.org/2000/svg">
<path d="M34.9055 24.1504C35.2713 23.7205 35.918 23.682 36.289 24.1063C36.3632 24.189 36.4374 24.2606 36.5063 24.3268C36.9516 24.7126 37.5347 24.8999 38.2926 24.8999C38.3722 24.8999 38.4517 24.8999 38.5524 24.8944L43.1268 24.6244C43.7258 24.5968 44.5951 24.4866 45.1941 23.8583C45.3584 23.6875 45.4962 23.4891 45.6022 23.2686C45.7241 23.0206 45.9944 22.8994 46.2436 22.993C47.7755 23.5938 49.5141 23.8969 51.4329 23.8969C51.5336 23.8969 51.6343 23.8969 51.735 23.8969C54.327 23.8583 56.4738 23.6103 58.2283 23.1529C58.4774 23.0867 58.7424 23.219 58.8379 23.467C59.1506 24.2606 59.9722 25.2582 62.156 25.3188H62.3204C63.0731 25.3188 63.9159 25.2968 64.8276 25.2527C65.8135 25.2031 66.6934 25.1369 67.4408 25.0487C68.4797 24.9275 69.2271 24.6189 69.7253 24.1063C70.2289 23.5938 70.5257 22.9655 70.5787 22.2986V22.26C70.6689 20.5736 70.6158 17.6361 70.4197 13.2877C70.2236 9.02196 70.0063 5.63252 69.773 3.20205L69.7677 3.14694C69.6405 2.19349 69.3808 1.47702 68.978 0.958962C68.4903 0.314143 67.7376 0 66.7411 0C66.6616 0 66.5768 0 66.492 0.00551128L60.6931 0.286586C59.5534 0.341699 58.7477 0.744022 58.2919 1.48804C57.958 2.03366 57.7777 2.76115 57.7406 3.7146C57.7247 4.17204 57.7141 4.70663 57.7088 5.31287C57.7088 5.50576 57.5339 5.64906 57.3537 5.60497L57.0409 5.52781C55.7317 5.19713 54.3535 5.0318 52.9383 5.0318C52.8429 5.0318 52.7421 5.0318 52.6467 5.0318C51.152 5.05384 49.8692 5.18611 48.8303 5.41758C47.7702 5.65457 46.7259 6.03485 45.7294 6.54188C44.717 7.05994 43.8159 7.68823 43.042 8.4047C42.8777 8.5535 42.724 8.71884 42.5755 8.88418C42.2204 9.2865 41.6744 9.44633 41.1709 9.29201C40.4341 9.07156 39.6284 8.96134 38.7485 8.96134C38.5683 8.96134 38.3881 8.96685 38.2025 8.97236C37.1053 9.02747 36.0929 9.29201 35.1759 9.76047C34.7041 10.003 34.1635 9.98643 33.6758 9.78251C33.3419 9.64473 32.9549 9.5786 32.515 9.5786C32.4461 9.5786 32.3718 9.5786 32.2923 9.58411L29.4194 9.72189C29.0537 9.73842 28.8363 9.31406 29.0537 9.00542C29.5201 8.35509 29.8222 7.48982 29.8275 6.33797C29.8275 4.97668 29.3028 3.83585 28.2957 3.03671C27.3681 2.31474 26.133 1.9565 24.5057 1.95099H24.4633C19.4012 1.95099 18.6432 4.83339 18.6379 6.55291V6.87807C18.6379 7.02137 18.5425 7.14261 18.4047 7.17017L17.8004 7.29142C17.5248 7.34653 17.2492 7.21426 17.1061 6.96625C17.0265 6.82847 16.9364 6.70171 16.8251 6.58597C16.3746 6.11201 15.7332 5.85849 14.9169 5.82542L13.5122 5.77031C13.2419 5.75928 13.0246 5.5223 13.0352 5.23571L13.0776 4.07834C13.1041 3.27921 12.8072 2.59581 12.2348 2.1494C11.7842 1.79668 11.1641 1.62032 10.2258 1.58725L8.91659 1.54316C8.85298 1.54316 8.78937 1.53765 8.72577 1.53765C7.97838 1.53765 7.3105 1.71401 6.74333 2.06122C6.29808 2.33127 5.6037 2.84933 4.54887 3.69255C3.35093 4.65152 2.85797 5.0318 2.65125 5.1806C2.48693 5.30185 2.31201 5.37901 2.11589 5.4231C1.3897 5.58292 0.843737 5.91911 0.499197 6.42064C0.191761 6.86705 0.0327421 7.44573 0.00623894 8.23385C-0.0149636 8.86764 0.0168402 9.3361 0.117552 9.72189C0.207663 10.0967 0.467393 10.7801 1.21478 11.1934C1.55932 11.3863 1.78195 11.75 1.76605 12.1524L1.69714 14.0703C1.59113 17.0794 2.49753 19.2288 4.40576 20.4634C5.26976 20.998 6.24507 21.3948 7.2999 21.6318C8.28581 21.8522 9.34064 21.99 10.4326 22.0286C10.7665 22.0396 11.1004 22.0451 11.4291 22.0451C12.1659 22.0451 12.908 22.012 13.6447 21.9514C14.4981 21.8798 15.712 21.6152 16.2739 21.4774C16.4488 21.4334 16.6343 21.505 16.735 21.6593C16.8622 21.8522 17.0159 22.0341 17.1909 22.1939C17.6838 22.6458 18.3835 22.8718 19.3906 22.9104C19.7564 22.9269 20.1486 22.9324 20.5621 22.9324C20.9119 22.9324 21.2829 22.9269 21.6646 22.9159C22.4915 22.8938 23.223 22.8498 23.8378 22.7891C24.299 22.745 24.6965 22.6513 25.0411 22.5081C25.2107 22.4364 25.4015 22.5466 25.428 22.7395L25.4704 23.0151C25.5658 23.6324 25.8786 24.1835 26.3609 24.6078C26.6949 24.8999 27.2779 25.2527 28.1791 25.2527H28.3169C29.6155 25.2527 30.5272 25.2416 31.0944 25.2141C31.6775 25.1865 32.2764 25.1369 32.8754 25.0598C33.7712 24.9495 34.4232 24.6685 34.8684 24.2C34.8843 24.178 34.8949 24.1614 34.9055 24.1504Z" fill="#1D1D1B"/>
<path d="M69.0361 13.1715C68.84 8.91126 68.628 5.57143 68.3948 3.15749C68.3046 2.47409 68.1403 1.98359 67.9018 1.68047C67.6633 1.37735 67.218 1.24508 66.5501 1.27815L60.7513 1.55922C60.0887 1.59229 59.654 1.76865 59.4579 2.08831C59.2618 2.41347 59.1452 2.915 59.1187 3.60391C59.0763 4.61247 59.0763 5.9958 59.1187 7.74839C58.5091 7.34055 57.7087 7.00987 56.7069 6.75636C55.4188 6.43119 54.0672 6.27688 52.6572 6.29892C51.2472 6.32097 50.0652 6.44221 49.1111 6.65164C48.157 6.86658 47.2294 7.20277 46.3283 7.66021C45.4272 8.12315 44.6374 8.66877 43.9536 9.30257C43.344 9.87023 42.8563 10.5702 42.4694 11.3858C42.4641 11.3803 42.4641 11.3803 42.4588 11.3748C41.4146 10.5316 40.0099 10.1513 38.2501 10.2395C36.4903 10.3277 35.022 11.0607 33.8559 12.4385V12.4164C33.7817 11.8212 33.6492 11.4079 33.453 11.1709C33.2569 10.9339 32.8912 10.8237 32.3505 10.8512L27.686 11.0772C27.1453 11.1048 26.7902 11.2425 26.6258 11.5016C26.4615 11.7606 26.3661 12.2952 26.3396 13.1164C26.3131 13.9375 26.3502 15.4531 26.4509 17.6687C26.5516 19.8842 26.6788 21.5266 26.8432 22.5903C26.8856 22.8713 27.0287 23.1138 27.2566 23.3177C27.4898 23.5217 27.7973 23.6209 28.1789 23.6209C29.52 23.6209 30.4688 23.6098 31.0307 23.5823C31.5872 23.5547 32.1491 23.5051 32.7163 23.439C33.2781 23.3729 33.6704 23.224 33.8824 22.9981C34.0944 22.7721 34.2216 22.5186 34.2534 22.2375C34.3117 21.4384 34.2958 19.9503 34.1951 17.7679L34.1262 16.2578C34.105 15.7948 34.2375 15.4311 34.5185 15.1555C34.7994 14.8855 35.1227 14.7422 35.4832 14.7257C35.8436 14.7091 36.1458 14.8194 36.3949 15.0563C36.644 15.2933 36.7818 15.6571 36.803 16.1531L37.0522 22.2045C37.0681 22.5847 37.1794 22.8658 37.3914 23.0477C37.5981 23.2296 37.9586 23.3067 38.4674 23.2792L43.0578 23.0036C43.6302 22.976 44.0119 22.8603 44.2027 22.6619C44.3935 22.4635 44.4889 22.1493 44.4836 21.7195C44.4783 21.4163 44.4677 20.9038 44.4359 20.1873C44.4942 20.2314 44.5525 20.281 44.6162 20.3251C46.482 21.6754 48.8461 22.3257 51.7084 22.2761C55.1644 22.221 57.82 21.7801 59.6805 20.9589C59.7335 20.9369 59.7812 20.9148 59.8289 20.8873C59.8925 21.4825 59.9615 22.0005 60.0304 22.4304C60.1258 23.2351 60.8308 23.6539 62.1453 23.6925C62.9139 23.698 63.7779 23.676 64.7479 23.6264C65.7126 23.5823 66.5554 23.5161 67.2657 23.428C67.976 23.3453 68.469 23.1634 68.7393 22.8879C69.0096 22.6123 69.158 22.3147 69.1845 21.9895C69.2853 20.3802 69.2323 17.4372 69.0361 13.1715ZM53.235 9.68284C54.2209 9.66631 54.7244 10.245 54.7456 11.4134C54.7616 12.2842 54.1149 12.7306 52.8109 12.7526C52.7685 12.7526 52.2756 12.7196 51.3267 12.6589C51.3957 10.6914 52.0317 9.70489 53.235 9.68284ZM58.7794 17.5144C58.3501 17.7679 57.7829 18.0214 57.0726 18.2694C56.3676 18.5174 55.4718 18.6497 54.3852 18.6717C53.2986 18.6883 52.5406 18.4347 52.1059 17.9057C51.6713 17.3766 51.4169 16.4617 51.3373 15.1555C52.8003 15.3925 54.2156 15.4972 55.5778 15.4752C57.1945 15.4476 58.4667 15.2272 59.3996 14.8083C59.4261 15.2933 59.4526 15.7618 59.4791 16.2082C59.5109 16.7428 59.2406 17.2498 58.79 17.5144C58.7847 17.5144 58.7794 17.5144 58.7794 17.5144Z" fill="white"/>
<path d="M15.9715 15.9268C15.7806 15.9213 15.4043 16.0095 14.8583 16.1914C14.3071 16.3788 13.8512 16.4614 13.4802 16.4504C12.7275 16.4228 12.3458 16.2024 11.9483 15.778C11.5507 15.3537 11.344 14.8301 11.3334 14.2238L11.4447 11.0053C11.45 10.7738 11.4924 10.5974 11.5666 10.4707C11.6408 10.3494 11.7999 10.2943 12.0437 10.2998L14.7735 10.4045C15.1923 10.4211 15.5103 10.3329 15.7276 10.1455C15.9449 9.95812 16.0669 9.5117 16.0881 8.80075C16.1146 8.09531 16.0298 7.63787 15.8336 7.43395C15.6375 7.23004 15.3142 7.11981 14.8583 7.10328L12.049 6.99305C11.7363 6.98203 11.5825 6.78914 11.5984 6.40886L11.6885 3.86265C11.6991 3.54299 11.6037 3.3005 11.397 3.14067C11.1903 2.98084 10.7821 2.88715 10.1726 2.86511L8.85802 2.81551C8.29615 2.79346 7.82439 2.90369 7.43745 3.13516C7.0505 3.37215 6.36672 3.88469 5.38611 4.66729C4.41079 5.45541 3.75882 5.96244 3.44608 6.19392C3.13334 6.42539 2.7835 6.57971 2.40186 6.66238C2.02021 6.74505 1.76048 6.88834 1.62266 7.08674C1.48485 7.28515 1.40534 7.62685 1.38944 8.11184C1.37353 8.59683 1.39474 8.95507 1.45834 9.18654C1.56436 9.655 1.9619 9.90301 2.64038 9.93056C3.02733 9.9471 3.21285 10.0959 3.20225 10.3825L3.08034 13.9483C2.99553 16.4173 3.6687 18.1148 5.11047 19.0517C5.84726 19.5092 6.67416 19.8398 7.58587 20.0438C8.49757 20.2477 9.46229 20.3689 10.48 20.4075C11.4977 20.4461 12.3193 20.413 13.3423 20.3248C14.3601 20.2366 15.1552 20.1099 15.7223 19.9335C16.2736 19.7406 16.5651 19.1234 16.6022 18.0872C16.6552 16.6653 16.4485 15.9434 15.9715 15.9268Z" fill="white"/>
<path d="M25.1416 10.3381C25.1045 9.94133 25.0568 9.61065 24.9932 9.3406C27.2778 9.14771 28.428 8.09505 28.4333 6.17713C28.4333 5.26777 28.1047 4.5458 27.4474 4.02222C26.7848 3.49314 25.8042 3.2286 24.5056 3.2286C21.5266 3.21758 20.0371 4.27574 20.0318 6.39207C20.0318 7.2353 20.3234 7.89665 20.9064 8.38164L18.8127 8.43675C18.2561 8.45329 17.8904 8.59107 17.7155 8.84459C17.5405 9.10362 17.4292 9.64923 17.3868 10.4759C17.3444 11.3081 17.3497 12.8568 17.4027 15.133C17.461 17.4091 17.5564 19.09 17.6996 20.1868C17.7367 20.4734 17.8745 20.7214 18.113 20.9363C18.3462 21.1513 18.7915 21.267 19.4488 21.2946C20.106 21.3166 20.8322 21.3221 21.6379 21.3001C22.4383 21.278 23.1327 21.2394 23.7105 21.1788C24.2882 21.1237 24.6911 20.9804 24.919 20.7544C25.1416 20.5285 25.2742 20.2695 25.3166 19.9829C25.3908 19.0349 25.4014 17.4036 25.3431 15.0999C25.2848 12.7962 25.2211 11.2034 25.1416 10.3381Z" fill="white"/>
<path d="M37.4179 26.983L34.3542 36.749H32.1597L30.278 30.7968L28.3963 36.749H26.2018L23.138 26.983H25.5975L27.3414 33.0069L29.3186 26.983H31.2427L33.2198 33.0069L34.9637 26.983H37.4179Z" fill="#1D1D1B"/>
<path d="M44.1867 33.2322C44.1867 35.3761 42.676 36.8697 40.5346 36.8697C38.3931 36.8697 36.8666 35.3706 36.8666 33.2322C36.8666 31.1049 38.3878 29.5782 40.5346 29.5782C42.676 29.5782 44.1867 31.1049 44.1867 33.2322ZM42.0983 33.2322C42.0983 32.2347 41.4516 31.5182 40.5346 31.5182C39.6017 31.5182 38.955 32.2347 38.955 33.2322C38.955 34.2463 39.6017 34.9462 40.5346 34.9462C41.4516 34.9462 42.0983 34.2463 42.0983 33.2322Z" fill="#1D1D1B"/>
<path d="M49.8159 31.8489C48.7293 31.893 48.0455 32.1906 47.5208 32.7197V36.6878H45.2839V29.7656H47.5208V30.5096C48.1091 29.9806 48.8247 29.6554 49.8159 29.6554V31.8489Z" fill="#1D1D1B"/>
<path d="M54.0723 34.2912L53.15 35.3163V36.6886H50.9131V26.5533H53.15V32.3512L55.4558 29.7664H58.1061L55.5777 32.5937L58.3234 36.6886H55.6625L54.0723 34.2912Z" fill="#1D1D1B"/>
<path d="M61.7849 35.1776C62.3732 35.1776 62.7443 35.0067 62.7443 34.7091C62.7443 34.4666 62.4846 34.2958 62.0446 34.2241L60.6982 33.9816C59.5586 33.7832 58.7476 33.1108 58.7476 31.8984C58.7476 30.4434 59.9403 29.5836 61.7107 29.5836C63.2902 29.5836 64.7161 30.1403 64.8115 31.97H62.8503C62.8079 31.4575 62.3308 31.226 61.7107 31.226C61.1329 31.226 60.8732 31.4409 60.8732 31.6944C60.8732 31.9369 61.0375 32.1519 61.5728 32.2511L62.8079 32.466C64.0429 32.7085 64.8804 33.3368 64.8804 34.5658C64.8804 36.1641 63.5076 36.8805 61.7637 36.8805C60.0463 36.8805 58.631 36.1531 58.4826 34.3123L60.4597 34.3288C60.5657 34.9185 61.0852 35.1776 61.7849 35.1776Z" fill="#1D1D1B"/>
<path d="M72.9903 32.737V36.6886H70.7641V33.1063C70.7641 32.1197 70.2817 31.6788 69.5396 31.6788C69.1421 31.6788 68.718 31.8938 68.3311 32.3347V36.6886H66.0942V26.5533H68.3311V30.2239C68.8664 29.8105 69.4442 29.579 70.1545 29.579C71.8348 29.579 72.9903 30.764 72.9903 32.737Z" fill="#1D1D1B"/>
<path d="M81.429 33.2322C81.429 35.3761 79.9183 36.8697 77.7768 36.8697C75.6354 36.8697 74.1088 35.3706 74.1088 33.2322C74.1088 31.1049 75.6354 29.5782 77.7768 29.5782C79.9183 29.5782 81.429 31.1049 81.429 33.2322ZM79.3458 33.2322C79.3458 32.2347 78.6991 31.5182 77.7821 31.5182C76.8492 31.5182 76.2025 32.2347 76.2025 33.2322C76.2025 34.2463 76.8492 34.9462 77.7821 34.9462C78.6991 34.9462 79.3458 34.2463 79.3458 33.2322Z" fill="#1D1D1B"/>
<path d="M90 33.2211C90 35.2768 88.4893 36.831 86.6924 36.831C85.9662 36.831 85.3726 36.6326 84.8796 36.3184V40H82.6374V29.7655H84.8743V30.1238C85.3673 29.8096 85.9609 29.6112 86.6871 29.6112C88.4893 29.6057 90 31.1489 90 33.2211ZM87.8161 33.2211C87.8161 32.2621 87.1589 31.4961 86.2525 31.4961C85.7701 31.4961 85.2931 31.6504 84.8796 32.1409V34.3123C85.2931 34.7973 85.7701 34.9406 86.2525 34.9406C87.1589 34.9351 87.8161 34.1746 87.8161 33.2211Z" fill="#1D1D1B"/>
</svg>
